<svg width="16" height="16" viewBox="0 0 16 16" fill="none" xmlns="http://www.w3.org/2000/svg">
<path d="M1.72949 8.56445C1.68457 8.53711 1.66016 8.50293 1.65625 8.46191L1.63281 8.18066C1.63672 8.1377 1.65332 8.10742 1.68262 8.08984L3.47852 7C3.49414 6.98828 3.50879 6.98242 3.52246 6.98242C3.55176 6.98242 3.57227 6.99023 3.58398 7.00586L3.8418 7.40723C3.85352 7.4248 3.85938 7.43945 3.85938 7.45117C3.85938 7.46289 3.85352 7.47266 3.8418 7.48047L2.26855 8.30957L3.84473 9.10938C3.85645 9.11719 3.8623 9.12793 3.8623 9.1416C3.8623 9.15527 3.85645 9.17188 3.84473 9.19141L3.59863 9.60742C3.59082 9.62109 3.58008 9.62793 3.56641 9.62793C3.55469 9.62793 3.54102 9.62305 3.52539 9.61328L1.72949 8.56445ZM8.50879 9.99121C8.46582 9.99121 8.44238 9.97168 8.43848 9.93262L8.45898 9.44043C8.46289 9.40332 8.47852 9.38477 8.50586 9.38477H8.70801L8.53223 6.08301L7.59766 9.9707C7.58984 10.0098 7.56641 10.0293 7.52734 10.0293L6.90625 10.0381C6.87109 10.0381 6.84863 10.0166 6.83887 9.97363L5.86914 6.21777L5.78418 9.36719L6.05371 9.35547C6.0791 9.35547 6.09473 9.37402 6.10059 9.41113L6.15039 9.93262C6.14648 9.97168 6.12305 9.99121 6.08008 9.99121L4.80859 10.0117C4.77539 10.0117 4.75781 9.98828 4.75586 9.94141L4.79102 9.39355C4.79492 9.3623 4.81055 9.34375 4.83789 9.33789L5.22461 9.37305L5.39746 6.20605L5.03418 6.24121C4.99512 6.24121 4.97461 6.21973 4.97266 6.17676L4.94629 5.63184C4.9502 5.59473 4.97363 5.57422 5.0166 5.57031L6.21777 5.50586C6.27441 5.50586 6.31055 5.5332 6.32617 5.58789L7.25781 9.30273L8.18359 5.61426C8.19531 5.55957 8.23145 5.53223 8.29199 5.53223L9.44336 5.54102C9.4668 5.54492 9.4834 5.55078 9.49316 5.55859C9.50488 5.56445 9.51172 5.5791 9.51367 5.60254L9.5459 6.17676C9.54199 6.2002 9.53711 6.2168 9.53125 6.22656C9.52734 6.23633 9.51465 6.24121 9.49316 6.24121L9.13281 6.23828L9.33203 9.37598L9.72168 9.36719C9.74902 9.37305 9.76465 9.3916 9.76855 9.42285L9.71582 9.91211C9.70801 9.95898 9.69043 9.98242 9.66309 9.98242L8.50879 9.99121ZM11.9102 5.00781C11.9395 5.01758 11.9541 5.03418 11.9541 5.05762C11.9541 5.06348 11.9521 5.07422 11.9482 5.08984L10.4805 11.292C10.4746 11.3193 10.457 11.333 10.4277 11.333C10.416 11.333 10.4062 11.332 10.3984 11.3301L10.0293 11.2393C9.99805 11.2314 9.98242 11.2109 9.98242 11.1777C9.98242 11.168 9.9834 11.1611 9.98535 11.1572L11.4385 4.96094C11.4443 4.92773 11.4639 4.91113 11.4971 4.91113C11.5049 4.91113 11.5117 4.91211 11.5176 4.91406L11.9102 5.00781ZM14.749 8.04883C14.7939 8.07617 14.8184 8.11035 14.8223 8.15137L14.8457 8.43262C14.8418 8.47559 14.8252 8.50586 14.7959 8.52344L13 9.61328C12.9844 9.625 12.9697 9.63086 12.9561 9.63086C12.9268 9.63086 12.9062 9.62305 12.8945 9.60742L12.6367 9.20605C12.625 9.18848 12.6191 9.17383 12.6191 9.16211C12.6191 9.15039 12.625 9.14062 12.6367 9.13281L14.21 8.30371L12.6338 7.50391C12.6221 7.49609 12.6162 7.48633 12.6162 7.47461C12.6162 7.46094 12.6221 7.44336 12.6338 7.42188L12.8799 7.00586C12.8877 6.99219 12.8975 6.98535 12.9092 6.98535C12.9229 6.98535 12.9375 6.99023 12.9531 7L14.749 8.04883Z" fill="#1A51DE"/>
</svg>
